<svg width="40" height="40" viewBox="0 0 40 40" fill="none" xmlns="http://www.w3.org/2000/svg">
  <path d="M10 14C10 12 12 10 15 10C18 10 20 12 20 14C20 16 18 18 15 18C12 18 10 16 10 14Z" stroke="#ffffff" stroke-width="2" stroke-linecap="round" stroke-linejoin="round"/>
  <path d="M20 26C20 24 22 22 25 22C28 22 30 24 30 26C30 28 28 30 25 30C22 30 20 28 20 26Z" stroke="#ffffff" stroke-width="2" stroke-linecap="round" stroke-linejoin="round"/>
  <path d="M20 14L30 26" stroke="#ffffff" stroke-width="2" stroke-linecap="round" stroke-linejoin="round"/>
  <path d="M10 26L20 14" stroke="#ffffff" stroke-width="2" stroke-linecap="round" stroke-linejoin="round"/>
</svg> 