<svg width="24" height="24" viewBox="0 0 24 24" fill="none" xmlns="http://www.w3.org/2000/svg">
  <rect width="24" height="24" fill="white"/>
  <path d="M17.472 14.382c-.297-.149-1.758-.867-2.03-.967-.273-.099-.472-.148-.67.15-.198.297-.767.967-.94 1.166-.173.198-.347.223-.644.074-.297-.149-1.255-.463-2.39-1.475-.883-.788-1.48-1.761-1.653-2.059-.173-.297-.018-.458.13-.606.134-.133.298-.347.446-.52.149-.174.198-.298.298-.497.099-.198.05-.372-.025-.521-.075-.149-.669-1.612-.916-2.207-.242-.579-.487-.5-.669-.51-.173-.008-.372-.01-.57-.01-.198 0-.52.074-.792.372-.272.297-1.04 1.016-1.04 2.479 0 1.462 1.065 2.875 1.213 3.074.149.198 2.099 3.205 5.077 4.372.71.306 1.263.489 1.695.626.712.227 1.36.195 1.872.118.571-.085 1.758-.719 2.006-1.413.248-.694.248-1.288.173-1.413-.074-.124-.272-.198-.57-.347z" fill="#25D366"/>
  <path d="M12.004 2.003c-5.523 0-9.997 4.474-9.997 9.997 0 1.762.463 3.484 1.34 4.997l-1.41 5.155a1.001 1.001 0 0 0 1.23 1.23l5.155-1.41a9.97 9.97 0 0 0 4.997 1.34c5.523 0 9.997-4.474 9.997-9.997s-4.474-9.997-9.997-9.997zm0 18.181c-1.57 0-3.11-.41-4.45-1.186l-.318-.183-3.06.837.818-2.99-.207-.326A7.98 7.98 0 0 1 4.02 12c0-4.418 3.582-8 8-8s8 3.582 8 8-3.582 8-8 8z" fill="#25D366"/>
</svg>
